<mxfile>
    <diagram id="W66MCKCPfeMFEBZK7xAL" name="Page-1">
        <mxGraphModel dx="769" dy="575" grid="1" gridSize="10" guides="1" tooltips="1" connect="1" arrows="1" fold="1" page="1" pageScale="1" pageWidth="827" pageHeight="1169" math="0" shadow="0">
            <root>
                <mxCell id="0"/>
                <mxCell id="1" parent="0"/>
                <mxCell id="soeziekp5oH6GHRPuZ2Z-10" value="" style="rounded=0;whiteSpace=wrap;html=1;" parent="1" vertex="1">
                    <mxGeometry x="280" y="189" width="610" height="331" as="geometry"/>
                </mxCell>
                <mxCell id="soeziekp5oH6GHRPuZ2Z-3" value="otvaranje()" style="edgeStyle=orthogonalEdgeStyle;rounded=0;orthogonalLoop=1;jettySize=auto;html=1;" parent="1" source="oA69pTfiYyQ1RtSddcOU-2" target="soeziekp5oH6GHRPuZ2Z-1" edge="1">
                    <mxGeometry relative="1" as="geometry">
                        <Array as="points">
                            <mxPoint x="360" y="180"/>
                            <mxPoint x="360" y="180"/>
                        </Array>
                    </mxGeometry>
                </mxCell>
                <mxCell id="oA69pTfiYyQ1RtSddcOU-2" value="Akter2" style="shape=umlLifeline;participant=umlActor;perimeter=lifelinePerimeter;whiteSpace=wrap;html=1;container=1;collapsible=0;recursiveResize=0;verticalAlign=top;spacingTop=36;outlineConnect=0;size=40;" parent="1" vertex="1">
                    <mxGeometry x="320" y="110" width="20" height="390" as="geometry"/>
                </mxCell>
                <mxCell id="soeziekp5oH6GHRPuZ2Z-5" value="autentificiraj()" style="edgeStyle=orthogonalEdgeStyle;rounded=0;orthogonalLoop=1;jettySize=auto;html=1;" parent="1" source="soeziekp5oH6GHRPuZ2Z-1" target="soeziekp5oH6GHRPuZ2Z-2" edge="1">
                    <mxGeometry x="0.0056" y="10" relative="1" as="geometry">
                        <Array as="points">
                            <mxPoint x="560" y="180"/>
                            <mxPoint x="560" y="180"/>
                        </Array>
                        <mxPoint as="offset"/>
                    </mxGeometry>
                </mxCell>
                <mxCell id="soeziekp5oH6GHRPuZ2Z-23" value="povratnaInfo()" style="edgeStyle=orthogonalEdgeStyle;rounded=0;orthogonalLoop=1;jettySize=auto;html=1;" parent="1" edge="1">
                    <mxGeometry x="-0.0557" y="-10" relative="1" as="geometry">
                        <Array as="points">
                            <mxPoint x="410" y="459"/>
                            <mxPoint x="410" y="459"/>
                        </Array>
                        <mxPoint as="offset"/>
                        <mxPoint x="482" y="459" as="sourcePoint"/>
                        <mxPoint x="329.5" y="459" as="targetPoint"/>
                    </mxGeometry>
                </mxCell>
                <mxCell id="soeziekp5oH6GHRPuZ2Z-1" value="Web aplikacija" style="shape=umlLifeline;perimeter=lifelinePerimeter;whiteSpace=wrap;html=1;container=1;collapsible=0;recursiveResize=0;outlineConnect=0;" parent="1" vertex="1">
                    <mxGeometry x="430" y="117" width="105" height="383" as="geometry"/>
                </mxCell>
                <mxCell id="soeziekp5oH6GHRPuZ2Z-7" value="loginSuccessful()" style="edgeStyle=orthogonalEdgeStyle;rounded=0;orthogonalLoop=1;jettySize=auto;html=1;" parent="1" source="soeziekp5oH6GHRPuZ2Z-2" target="soeziekp5oH6GHRPuZ2Z-4" edge="1">
                    <mxGeometry x="0.0056" y="10" relative="1" as="geometry">
                        <Array as="points">
                            <mxPoint x="750" y="210"/>
                            <mxPoint x="750" y="210"/>
                        </Array>
                        <mxPoint as="offset"/>
                    </mxGeometry>
                </mxCell>
                <mxCell id="soeziekp5oH6GHRPuZ2Z-2" value="Autentifikacija" style="shape=umlLifeline;perimeter=lifelinePerimeter;whiteSpace=wrap;html=1;container=1;collapsible=0;recursiveResize=0;outlineConnect=0;" parent="1" vertex="1">
                    <mxGeometry x="610" y="117" width="100" height="383" as="geometry"/>
                </mxCell>
                <mxCell id="soeziekp5oH6GHRPuZ2Z-12" value="prikazFunkcionalnosti()" style="edgeStyle=orthogonalEdgeStyle;rounded=0;orthogonalLoop=1;jettySize=auto;html=1;" parent="1" source="soeziekp5oH6GHRPuZ2Z-4" target="soeziekp5oH6GHRPuZ2Z-1" edge="1">
                    <mxGeometry x="-0.0028" y="-10" relative="1" as="geometry">
                        <Array as="points">
                            <mxPoint x="660" y="230"/>
                            <mxPoint x="660" y="230"/>
                        </Array>
                        <mxPoint as="offset"/>
                    </mxGeometry>
                </mxCell>
                <mxCell id="soeziekp5oH6GHRPuZ2Z-4" value="Baza podataka" style="shape=umlLifeline;perimeter=lifelinePerimeter;whiteSpace=wrap;html=1;container=1;collapsible=0;recursiveResize=0;outlineConnect=0;" parent="1" vertex="1">
                    <mxGeometry x="790" y="117" width="100" height="383" as="geometry"/>
                </mxCell>
                <mxCell id="soeziekp5oH6GHRPuZ2Z-22" value="loginUnsuccessful()" style="edgeStyle=orthogonalEdgeStyle;rounded=0;orthogonalLoop=1;jettySize=auto;html=1;" parent="1" edge="1">
                    <mxGeometry x="0.4517" y="-10" relative="1" as="geometry">
                        <mxPoint x="838.75" y="454" as="sourcePoint"/>
                        <mxPoint x="481.25" y="454" as="targetPoint"/>
                        <Array as="points">
                            <mxPoint x="659.25" y="454"/>
                            <mxPoint x="659.25" y="454"/>
                        </Array>
                        <mxPoint as="offset"/>
                    </mxGeometry>
                </mxCell>
                <mxCell id="soeziekp5oH6GHRPuZ2Z-24" value="" style="endArrow=none;dashed=1;html=1;entryX=0;entryY=0.5;entryDx=0;entryDy=0;exitX=1;exitY=0.684;exitDx=0;exitDy=0;exitPerimeter=0;" parent="1" edge="1">
                    <mxGeometry width="50" height="50" relative="1" as="geometry">
                        <mxPoint x="890" y="431.524" as="sourcePoint"/>
                        <mxPoint x="280" y="431.5" as="targetPoint"/>
                    </mxGeometry>
                </mxCell>
                <mxCell id="soeziekp5oH6GHRPuZ2Z-25" value="if true" style="text;html=1;align=center;verticalAlign=middle;resizable=0;points=[];autosize=1;strokeColor=none;" parent="1" vertex="1">
                    <mxGeometry x="280" y="200" width="50" height="20" as="geometry"/>
                </mxCell>
                <mxCell id="soeziekp5oH6GHRPuZ2Z-26" value="else" style="text;html=1;align=center;verticalAlign=middle;resizable=0;points=[];autosize=1;strokeColor=none;" parent="1" vertex="1">
                    <mxGeometry x="285" y="443" width="40" height="20" as="geometry"/>
                </mxCell>
                <mxCell id="6" value="unos()" style="edgeStyle=orthogonalEdgeStyle;rounded=0;orthogonalLoop=1;jettySize=auto;html=1;" edge="1" parent="1">
                    <mxGeometry x="-0.06" y="10" relative="1" as="geometry">
                        <Array as="points">
                            <mxPoint x="400.5" y="247"/>
                            <mxPoint x="400.5" y="247"/>
                        </Array>
                        <mxPoint as="offset"/>
                        <mxPoint x="330" y="247" as="sourcePoint"/>
                        <mxPoint x="482.5" y="247" as="targetPoint"/>
                    </mxGeometry>
                </mxCell>
                <mxCell id="7" value="addJaja()&lt;br&gt;addHrana()" style="edgeStyle=orthogonalEdgeStyle;html=1;align=left;spacingLeft=2;endArrow=block;rounded=0;entryX=1;entryY=0;" edge="1" parent="1">
                    <mxGeometry x="0.7483" y="20" relative="1" as="geometry">
                        <mxPoint x="482.5" y="247" as="sourcePoint"/>
                        <Array as="points">
                            <mxPoint x="560.5" y="247"/>
                            <mxPoint x="560.5" y="257"/>
                        </Array>
                        <mxPoint x="1" as="offset"/>
                        <mxPoint x="501.5" y="257" as="targetPoint"/>
                    </mxGeometry>
                </mxCell>
                <mxCell id="8" value="unos()" style="edgeStyle=orthogonalEdgeStyle;rounded=0;orthogonalLoop=1;jettySize=auto;html=1;" edge="1" parent="1">
                    <mxGeometry relative="1" as="geometry">
                        <mxPoint x="501.5" y="292" as="sourcePoint"/>
                        <mxPoint x="840" y="292" as="targetPoint"/>
                        <Array as="points">
                            <mxPoint x="670.5" y="292"/>
                            <mxPoint x="670.5" y="292"/>
                        </Array>
                    </mxGeometry>
                </mxCell>
                <mxCell id="9" value="" style="html=1;points=[];perimeter=orthogonalPerimeter;" vertex="1" parent="1">
                    <mxGeometry x="491" y="257" width="10" height="40" as="geometry"/>
                </mxCell>
                <mxCell id="10" value="pregledUnosa()" style="edgeStyle=orthogonalEdgeStyle;rounded=0;orthogonalLoop=1;jettySize=auto;html=1;" edge="1" parent="1">
                    <mxGeometry x="0.0557" y="10" relative="1" as="geometry">
                        <Array as="points">
                            <mxPoint x="400" y="320"/>
                            <mxPoint x="400" y="320"/>
                        </Array>
                        <mxPoint x="1" as="offset"/>
                        <mxPoint x="329.5" y="320" as="sourcePoint"/>
                        <mxPoint x="482" y="320" as="targetPoint"/>
                    </mxGeometry>
                </mxCell>
                <mxCell id="11" value="uzimanjePodataka()" style="edgeStyle=orthogonalEdgeStyle;rounded=0;orthogonalLoop=1;jettySize=auto;html=1;" edge="1" parent="1">
                    <mxGeometry x="-0.3958" y="10" relative="1" as="geometry">
                        <Array as="points">
                            <mxPoint x="660" y="330"/>
                            <mxPoint x="660" y="330"/>
                        </Array>
                        <mxPoint as="offset"/>
                        <mxPoint x="482" y="330" as="sourcePoint"/>
                        <mxPoint x="839.5" y="330" as="targetPoint"/>
                    </mxGeometry>
                </mxCell>
                <mxCell id="12" value="prikazPodataka()" style="edgeStyle=orthogonalEdgeStyle;rounded=0;orthogonalLoop=1;jettySize=auto;html=1;" edge="1" parent="1">
                    <mxGeometry x="0.4517" y="-10" relative="1" as="geometry">
                        <Array as="points">
                            <mxPoint x="660" y="350"/>
                            <mxPoint x="660" y="350"/>
                        </Array>
                        <mxPoint as="offset"/>
                        <mxPoint x="839.5" y="350" as="sourcePoint"/>
                        <mxPoint x="482" y="350" as="targetPoint"/>
                    </mxGeometry>
                </mxCell>
                <mxCell id="16" value="pregled()" style="edgeStyle=orthogonalEdgeStyle;rounded=0;orthogonalLoop=1;jettySize=auto;html=1;" edge="1" parent="1">
                    <mxGeometry x="-0.06" y="10" relative="1" as="geometry">
                        <Array as="points">
                            <mxPoint x="400.87" y="380"/>
                            <mxPoint x="400.87" y="380"/>
                        </Array>
                        <mxPoint as="offset"/>
                        <mxPoint x="330.3700000000001" y="380" as="sourcePoint"/>
                        <mxPoint x="482.8700000000001" y="380" as="targetPoint"/>
                    </mxGeometry>
                </mxCell>
                <mxCell id="17" value="uzimanjePodataka()" style="edgeStyle=orthogonalEdgeStyle;rounded=0;orthogonalLoop=1;jettySize=auto;html=1;" edge="1" parent="1">
                    <mxGeometry x="-0.3958" y="10" relative="1" as="geometry">
                        <Array as="points">
                            <mxPoint x="660.12" y="396"/>
                            <mxPoint x="660.12" y="396"/>
                        </Array>
                        <mxPoint as="offset"/>
                        <mxPoint x="482.1200000000001" y="396" as="sourcePoint"/>
                        <mxPoint x="839.6200000000001" y="396" as="targetPoint"/>
                    </mxGeometry>
                </mxCell>
                <mxCell id="18" value="prikazPodataka()" style="edgeStyle=orthogonalEdgeStyle;rounded=0;orthogonalLoop=1;jettySize=auto;html=1;" edge="1" parent="1">
                    <mxGeometry x="0.4517" y="-10" relative="1" as="geometry">
                        <Array as="points">
                            <mxPoint x="660.12" y="416"/>
                            <mxPoint x="660.12" y="416"/>
                        </Array>
                        <mxPoint as="offset"/>
                        <mxPoint x="839.6200000000001" y="416" as="sourcePoint"/>
                        <mxPoint x="482.1200000000001" y="416" as="targetPoint"/>
                    </mxGeometry>
                </mxCell>
            </root>
        </mxGraphModel>
    </diagram>
</mxfile>